<svg width="39" height="39" viewBox="0 0 39 39" fill="none" xmlns="http://www.w3.org/2000/svg">
<path d="M19.5 10.75V21.25" stroke="#4C4C4C" stroke-width="4" stroke-linecap="round"/>
<path d="M19.7496 26.5C19.7496 26.6381 19.6377 26.75 19.4996 26.75C19.3789 26.75 19.278 26.6645 19.2545 26.5508L19.2496 26.5C19.2496 26.3619 19.3616 26.25 19.4996 26.25L19.5504 26.2549C19.6642 26.2783 19.7496 26.3793 19.7496 26.5Z" fill="#4C4C4C" stroke="#4C4C4C" stroke-width="4"/>
<path d="M2 19.5C2 11.2505 2 7.12575 4.562 4.562C7.1275 2 11.2505 2 19.5 2C27.7495 2 31.8742 2 34.4362 4.562C37 7.1275 37 11.2505 37 19.5C37 27.7495 37 31.8742 34.4362 34.4362C31.876 37 27.7495 37 19.5 37C11.2505 37 7.12575 37 4.562 34.4362C2 31.876 2 27.7495 2 19.5Z" stroke="#4C4C4C" stroke-width="4"/>
</svg>
