<svg width="34" height="33" viewBox="0 0 34 33" fill="none" xmlns="http://www.w3.org/2000/svg">
<path d="M0 15.6067C0 13.7722 0.590448 12.1451 1.77135 10.7094C2.89284 9.31568 4.47432 8.34095 6.24891 7.94965C6.75736 5.78016 7.92185 3.99352 9.7096 2.58973C11.4973 1.18594 13.5475 0.5 15.8601 0.5C18.1235 0.5 20.1245 1.18594 21.8958 2.54187C23.6671 3.89781 24.8152 5.65254 25.3401 7.79013H25.8649C27.3246 7.79013 28.686 8.14108 29.9325 8.82702C31.179 9.51296 32.1795 10.4701 32.9011 11.6665C33.6228 12.8629 34 14.1869 34 15.6067C34 17.0105 33.6556 18.3026 32.9667 19.499C32.2779 20.6954 31.3266 21.6525 30.1293 22.3704C28.932 23.0882 27.6199 23.4711 26.193 23.503C25.9797 23.503 25.8649 23.4073 25.8649 23.2318V21.1102C25.8649 20.9187 25.9797 20.823 26.193 20.823C27.5871 20.7592 28.7844 20.2168 29.7685 19.1959C30.7525 18.175 31.2446 16.9786 31.2446 15.5907C31.2446 14.2029 30.7033 13.0065 29.6372 11.9855C28.5711 10.9646 27.3082 10.4541 25.8485 10.4541H23.2079C23.0111 10.4541 22.9127 10.3584 22.9127 10.183L22.7815 9.25773C22.6238 7.58452 21.8069 6.03547 20.5017 4.9347C19.1568 3.77019 17.615 3.19591 15.8273 3.19591C14.0396 3.19591 12.465 3.77019 11.1529 4.9347C9.85772 6.03729 9.05719 7.58878 8.92233 9.25773L8.80753 10.1032C8.80753 10.2946 8.69272 10.4063 8.4795 10.4063L7.61023 10.4541C6.24891 10.6137 5.10082 11.1879 4.16594 12.161C3.23107 13.1341 2.77183 14.2827 2.77183 15.6067C2.77183 16.9945 3.26387 18.1909 4.24795 19.2119C5.23203 20.2328 6.42933 20.7752 7.82344 20.839C8.00386 20.839 8.10227 20.9347 8.10227 21.1261V23.2478C8.10227 23.4232 8.00386 23.5189 7.82344 23.5189C5.62566 23.4232 3.77231 22.6097 2.24699 21.0783C0.72166 19.5469 0 17.7283 0 15.6067ZM8.77472 26.2787C8.77472 26.2149 8.79112 26.1032 8.84033 25.9596L11.5137 16.7552C11.619 16.4244 11.8524 16.1463 12.1645 15.9796C12.4766 15.8129 12.8432 15.7707 13.1867 15.8619C13.5803 15.9257 13.8755 16.1331 14.0724 16.4521C14.2692 16.7712 14.3184 17.1221 14.2036 17.5209L11.5301 26.6615C11.3333 27.3475 10.8741 27.6825 10.1852 27.6825C10.1196 27.6825 10.0704 27.6665 10.0048 27.6505C9.90641 27.6186 9.85721 27.6027 9.84081 27.6027C9.51561 27.529 9.22959 27.3417 9.03714 27.0763C8.87012 26.8417 8.77876 26.564 8.77472 26.2787ZM13.0719 30.7612L17.0738 16.7712C17.1394 16.4681 17.3034 16.2288 17.5658 16.0693C17.8283 15.9098 18.0907 15.83 18.3695 15.83C18.5171 15.83 18.6647 15.846 18.8123 15.8779C19.1732 15.9736 19.4356 16.181 19.616 16.5C19.7964 16.819 19.8292 17.154 19.7308 17.5209L15.7453 31.5269C15.6797 31.7981 15.5321 32.0214 15.2697 32.2129C15.0072 32.4043 14.7448 32.5 14.4332 32.5C14.2856 32.5 14.138 32.4681 14.0232 32.4202C13.6951 32.3405 13.4163 32.1331 13.1703 31.7981C12.9899 31.511 12.9571 31.176 13.0719 30.7612ZM19.8456 26.3106C19.8456 26.2468 19.862 26.1351 19.9112 25.9437L22.5847 16.7393C22.665 16.4591 22.8379 16.2124 23.0767 16.0374C23.3227 15.8779 23.5687 15.7981 23.8312 15.7981C23.9624 15.7981 24.11 15.8141 24.2576 15.846C24.602 15.9417 24.848 16.1012 25.0121 16.3405C25.1761 16.5798 25.2581 16.835 25.2581 17.0902C25.2581 17.1381 25.2417 17.2178 25.2253 17.3136C25.2089 17.4093 25.1925 17.4731 25.1925 17.505L22.5191 26.6456C22.4534 26.9487 22.3058 27.2039 22.0598 27.3794C21.8138 27.5548 21.535 27.6505 21.2233 27.6505L20.8297 27.5708C20.5232 27.4947 20.2552 27.3134 20.0753 27.0603C19.9288 26.8359 19.8493 26.5763 19.8456 26.3106Z" fill="#4C4C4C"/>
</svg>
