<svg width="21" height="19" viewBox="0 0 21 19" fill="none" xmlns="http://www.w3.org/2000/svg">
<path d="M12.4114 1.10509C12.2216 0.76998 11.9446 0.49091 11.6091 0.296658C11.2735 0.102405 10.8916 0 10.5026 0C10.1136 0 9.7317 0.102405 9.39618 0.296658C9.06065 0.49091 8.78369 0.76998 8.59384 1.10509L0.278088 15.7878C0.0920727 16.1162 -0.00375271 16.4869 0.000112464 16.8632C0.00397764 17.2394 0.107399 17.6081 0.300123 17.9327C0.492848 18.2574 0.768182 18.5266 1.09883 18.7138C1.42947 18.901 1.80395 18.9997 2.18513 19H18.8131C19.1945 19 19.5691 18.9015 19.9 18.7145C20.2309 18.5274 20.5065 18.2581 20.6994 17.9335C20.8924 17.6088 20.9959 17.24 20.9999 16.8636C21.0038 16.4872 20.908 16.1164 20.7219 15.7878L12.4114 1.10509ZM11.8131 14.2508C11.8131 14.5943 11.6748 14.9238 11.4287 15.1667C11.1826 15.4096 10.8489 15.5461 10.5009 15.5461C10.1529 15.5461 9.8191 15.4096 9.57302 15.1667C9.32694 14.9238 9.18869 14.5943 9.18869 14.2508C9.18869 13.9073 9.32694 13.5779 9.57302 13.335C9.8191 13.0921 10.1529 12.9556 10.5009 12.9556C10.8489 12.9556 11.1826 13.0921 11.4287 13.335C11.6748 13.5779 11.8131 13.9073 11.8131 14.2508ZM9.62609 10.3651V6.04769C9.62609 5.81868 9.71825 5.59905 9.88231 5.43712C10.0464 5.27518 10.2689 5.18421 10.5009 5.18421C10.7329 5.18421 10.9554 5.27518 11.1194 5.43712C11.2835 5.59905 11.3757 5.81868 11.3757 6.04769V10.3651C11.3757 10.5941 11.2835 10.8138 11.1194 10.9757C10.9554 11.1376 10.7329 11.2286 10.5009 11.2286C10.2689 11.2286 10.0464 11.1376 9.88231 10.9757C9.71825 10.8138 9.62609 10.5941 9.62609 10.3651Z" fill="#F55D4E"/>
</svg>
