<svg width="12" height="19" viewBox="0 0 12 19" fill="none" xmlns="http://www.w3.org/2000/svg">
<path d="M6 9.025C5.43168 9.025 4.88663 8.77478 4.48477 8.32938C4.08291 7.88398 3.85714 7.27989 3.85714 6.65C3.85714 6.02011 4.08291 5.41602 4.48477 4.97062C4.88663 4.52522 5.43168 4.275 6 4.275C6.56832 4.275 7.11337 4.52522 7.51523 4.97062C7.91709 5.41602 8.14286 6.02011 8.14286 6.65C8.14286 6.96189 8.08743 7.27073 7.97974 7.55887C7.87205 7.84702 7.71421 8.10884 7.51523 8.32938C7.31625 8.54992 7.08002 8.72486 6.82004 8.84421C6.56005 8.96357 6.2814 9.025 6 9.025ZM6 0C4.4087 0 2.88258 0.700623 1.75736 1.94774C0.632141 3.19486 0 4.88631 0 6.65C0 11.6375 6 19 6 19C6 19 12 11.6375 12 6.65C12 4.88631 11.3679 3.19486 10.2426 1.94774C9.11742 0.700623 7.5913 0 6 0Z" fill="#FF2626"/>
</svg>
