<svg width="19" height="19" viewBox="0 0 19 19" fill="none" xmlns="http://www.w3.org/2000/svg">
<path d="M6.5158 0.00076854C6.21616 -0.00708102 5.918 0.045266 5.63895 0.154711C5.34764 0.273578 5.11284 0.45675 4.89655 0.6711L0.671105 4.89672C0.463584 5.10523 0.281394 5.33517 0.159609 5.62551C0.0466912 5.90848 -0.0073454 6.21149 0.000801436 6.51604V12.4847C0.000801436 12.779 0.0358754 13.0713 0.154737 13.3616C0.273599 13.652 0.456764 13.8877 0.671105 14.104L4.89655 18.3297C5.10505 18.5372 5.33498 18.7194 5.62531 18.8402C5.91565 18.962 6.21085 19 6.5158 19H12.4842C12.7785 19 13.0707 18.9659 13.3611 18.8461C13.6524 18.7272 13.8872 18.544 14.1035 18.3297L18.3289 14.104C18.5364 13.8955 18.7186 13.6656 18.8394 13.3753C18.9527 13.0924 19.0071 12.7893 18.9992 12.4847V6.51604C19.0071 6.21639 18.9547 5.91821 18.8453 5.63916C18.7254 5.35916 18.5497 5.10654 18.3289 4.89672L14.1035 0.6711C13.8937 0.450304 13.6411 0.274597 13.3611 0.154711C13.082 0.045266 12.7839 -0.00708102 12.4842 0.00076854H6.5158ZM9.50002 4.50894C9.69381 4.50894 9.87967 4.58593 10.0167 4.72297C10.1537 4.86001 10.2307 5.04588 10.2307 5.23968V10.5984C10.2307 10.7922 10.1537 10.9781 10.0167 11.1152C9.87967 11.2522 9.69381 11.3292 9.50002 11.3292C9.30622 11.3292 9.12036 11.2522 8.98333 11.1152C8.84629 10.9781 8.76931 10.7922 8.76931 10.5984V5.23968C8.76931 5.04588 8.84629 4.86001 8.98333 4.72297C9.12036 4.58593 9.30622 4.50894 9.50002 4.50894ZM10.2307 13.2739V13.7611C10.2307 13.9549 10.1537 14.1408 10.0167 14.2778C9.87967 14.4148 9.69381 14.4918 9.50002 14.4918C9.30622 14.4918 9.12036 14.4148 8.98333 14.2778C8.84629 14.1408 8.76931 13.9549 8.76931 13.7611V13.2739C8.76931 13.0801 8.84629 12.8943 8.98333 12.7572C9.12036 12.6202 9.30622 12.5432 9.50002 12.5432C9.69381 12.5432 9.87967 12.6202 10.0167 12.7572C10.1537 12.8943 10.2307 13.0801 10.2307 13.2739Z" fill="#FF8D4C"/>
</svg>
