<svg width="23" height="21" viewBox="0 0 23 21" fill="none" xmlns="http://www.w3.org/2000/svg">
<path d="M13.5935 1.22142C13.3855 0.85103 13.0822 0.542585 12.7147 0.327885C12.3472 0.113185 11.9289 0 11.5029 0C11.0769 0 10.6585 0.113185 10.2911 0.327885C9.92357 0.542585 9.62023 0.85103 9.4123 1.22142L0.304573 17.4497C0.100842 17.8127 -0.00411011 18.2224 0.000123175 18.6382C0.00435646 19.0541 0.117627 19.4616 0.328706 19.8204C0.539785 20.1792 0.841342 20.4768 1.20348 20.6837C1.56561 20.8906 1.97575 20.9996 2.39324 21H20.6048C21.0225 21 21.4329 20.8912 21.7953 20.6844C22.1577 20.4776 22.4595 20.1801 22.6708 19.8212C22.8821 19.4624 22.9956 19.0547 22.9999 18.6387C23.0042 18.2227 22.8992 17.8128 22.6954 17.4497L13.5935 1.22142ZM12.9381 15.7509C12.9381 16.1306 12.7867 16.4947 12.5172 16.7632C12.2477 17.0317 11.8821 17.1825 11.501 17.1825C11.1198 17.1825 10.7543 17.0317 10.4847 16.7632C10.2152 16.4947 10.0638 16.1306 10.0638 15.7509C10.0638 15.3712 10.2152 15.0071 10.4847 14.7386C10.7543 14.4702 11.1198 14.3193 11.501 14.3193C11.8821 14.3193 12.2477 14.4702 12.5172 14.7386C12.7867 15.0071 12.9381 15.3712 12.9381 15.7509ZM10.5429 11.4562V6.68429C10.5429 6.43118 10.6438 6.18843 10.8235 6.00945C11.0032 5.83046 11.2469 5.72991 11.501 5.72991C11.7551 5.72991 11.9988 5.83046 12.1784 6.00945C12.3581 6.18843 12.4591 6.43118 12.4591 6.68429V11.4562C12.4591 11.7093 12.3581 11.9521 12.1784 12.131C11.9988 12.31 11.7551 12.4106 11.501 12.4106C11.2469 12.4106 11.0032 12.31 10.8235 12.131C10.6438 11.9521 10.5429 11.7093 10.5429 11.4562Z" fill="black"/>
</svg>
