<svg width="19" height="19" viewBox="0 0 19 19" fill="none" xmlns="http://www.w3.org/2000/svg">
<path fill-rule="evenodd" clip-rule="evenodd" d="M19 9.5C19 4.25315 14.7468 0 9.5 0C4.25315 0 0 4.25315 0 9.5C0 14.7468 4.25315 19 9.5 19C14.7468 19 19 14.7468 19 9.5ZM9.5 4.75C9.75196 4.75 9.99359 4.85009 10.1718 5.02825C10.3499 5.20641 10.45 5.44804 10.45 5.7V10.45C10.45 10.702 10.3499 10.9436 10.1718 11.1218C9.99359 11.2999 9.75196 11.4 9.5 11.4C9.24804 11.4 9.00641 11.2999 8.82825 11.1218C8.65009 10.9436 8.55 10.702 8.55 10.45V5.7C8.55 5.44804 8.65009 5.20641 8.82825 5.02825C9.00641 4.85009 9.24804 4.75 9.5 4.75ZM8.55 13.3C8.55 13.048 8.65009 12.8064 8.82825 12.6282C9.00641 12.4501 9.24804 12.35 9.5 12.35H9.5076C9.75956 12.35 10.0012 12.4501 10.1794 12.6282C10.3575 12.8064 10.4576 13.048 10.4576 13.3C10.4576 13.552 10.3575 13.7936 10.1794 13.9718C10.0012 14.1499 9.75956 14.25 9.5076 14.25H9.5C9.24804 14.25 9.00641 14.1499 8.82825 13.9718C8.65009 13.7936 8.55 13.552 8.55 13.3Z" fill="#F4BB28"/>
</svg>
