<svg width="34" height="32" viewBox="0 0 34 32" fill="none" xmlns="http://www.w3.org/2000/svg">
<path d="M0 15.1067C0 13.2722 0.590448 11.6451 1.77135 10.2094C2.89284 8.81568 4.47432 7.84095 6.24891 7.44965C6.75736 5.28016 7.92185 3.49352 9.7096 2.08973C11.4973 0.685942 13.5475 0 15.8601 0C18.1235 0 20.1245 0.685942 21.8958 2.04187C23.6671 3.39781 24.8152 5.15254 25.3401 7.29013H25.8649C27.3246 7.29013 28.686 7.64108 29.9325 8.32702C31.179 9.01296 32.1795 9.97009 32.9011 11.1665C33.6228 12.3629 34 13.6869 34 15.1067C34 16.5105 33.6556 17.8026 32.9667 18.999C32.2779 20.1954 31.3266 21.1525 30.1293 21.8704C28.932 22.5882 27.6199 22.9711 26.193 23.003C25.9797 23.003 25.8649 22.9073 25.8649 22.7318V20.6102C25.8649 20.4187 25.9797 20.323 26.193 20.323C27.5871 20.2592 28.7844 19.7168 29.7685 18.6959C30.7525 17.675 31.2446 16.4786 31.2446 15.0907C31.2446 13.7029 30.7033 12.5065 29.6372 11.4855C28.5711 10.4646 27.3082 9.95414 25.8485 9.95414H23.2079C23.0111 9.95414 22.9127 9.85843 22.9127 9.68295L22.7815 8.75773C22.6238 7.08452 21.8069 5.53547 20.5017 4.4347C19.1568 3.27019 17.615 2.69591 15.8273 2.69591C14.0396 2.69591 12.465 3.27019 11.1529 4.4347C9.85772 5.53729 9.05719 7.08878 8.92233 8.75773L8.80753 9.60319C8.80753 9.79462 8.69272 9.90628 8.4795 9.90628L7.61023 9.95414C6.24891 10.1137 5.10082 10.6879 4.16594 11.661C3.23107 12.6341 2.77183 13.7827 2.77183 15.1067C2.77183 16.4945 3.26387 17.6909 4.24795 18.7119C5.23203 19.7328 6.42933 20.2752 7.82344 20.339C8.00386 20.339 8.10227 20.4347 8.10227 20.6261V22.7478C8.10227 22.9232 8.00386 23.0189 7.82344 23.0189C5.62566 22.9232 3.77231 22.1097 2.24699 20.5783C0.72166 19.0469 0 17.2283 0 15.1067ZM8.77472 25.7787C8.77472 25.7149 8.79112 25.6032 8.84033 25.4596L11.5137 16.2552C11.619 15.9244 11.8524 15.6463 12.1645 15.4796C12.4766 15.3129 12.8432 15.2707 13.1867 15.3619C13.5803 15.4257 13.8755 15.6331 14.0724 15.9521C14.2692 16.2712 14.3184 16.6221 14.2036 17.0209L11.5301 26.1615C11.3333 26.8475 10.8741 27.1825 10.1852 27.1825C10.1196 27.1825 10.0704 27.1665 10.0048 27.1505C9.90641 27.1186 9.85721 27.1027 9.84081 27.1027C9.51561 27.029 9.22959 26.8417 9.03714 26.5763C8.87012 26.3417 8.77876 26.064 8.77472 25.7787ZM13.0719 30.2612L17.0738 16.2712C17.1394 15.9681 17.3034 15.7288 17.5658 15.5693C17.8283 15.4098 18.0907 15.33 18.3695 15.33C18.5171 15.33 18.6647 15.346 18.8123 15.3779C19.1732 15.4736 19.4356 15.681 19.616 16C19.7964 16.319 19.8292 16.654 19.7308 17.0209L15.7453 31.0269C15.6797 31.2981 15.5321 31.5214 15.2697 31.7129C15.0072 31.9043 14.7448 32 14.4332 32C14.2856 32 14.138 31.9681 14.0232 31.9202C13.6951 31.8405 13.4163 31.6331 13.1703 31.2981C12.9899 31.011 12.9571 30.676 13.0719 30.2612ZM19.8456 25.8106C19.8456 25.7468 19.862 25.6351 19.9112 25.4437L22.5847 16.2393C22.665 15.9591 22.8379 15.7124 23.0767 15.5374C23.3227 15.3779 23.5687 15.2981 23.8312 15.2981C23.9624 15.2981 24.11 15.3141 24.2576 15.346C24.602 15.4417 24.848 15.6012 25.0121 15.8405C25.1761 16.0798 25.2581 16.335 25.2581 16.5902C25.2581 16.6381 25.2417 16.7178 25.2253 16.8136C25.2089 16.9093 25.1925 16.9731 25.1925 17.005L22.5191 26.1456C22.4534 26.4487 22.3058 26.7039 22.0598 26.8794C21.8138 27.0548 21.535 27.1505 21.2233 27.1505L20.8297 27.0708C20.5232 26.9947 20.2552 26.8134 20.0753 26.5603C19.9288 26.3359 19.8493 26.0763 19.8456 25.8106Z" fill="white"/>
</svg>
