<svg width="23" height="32" viewBox="0 0 23 32" fill="none" xmlns="http://www.w3.org/2000/svg">
<path d="M11.4992 29.9258V24.3154M2.39708 11.9578L1.75377 14.3575C1.24236 16.2678 1.51043 18.303 2.49906 20.0157C3.48769 21.7285 5.11595 22.9785 7.02592 23.4911C8.51701 23.8921 10.0081 24.2915 11.4992 24.6895V19.5429C11.3802 18.0058 10.7874 16.5435 9.80238 15.3575C8.81738 14.1715 7.48874 13.3203 5.99962 12.9212L2.39708 11.9578Z" stroke="#4C4C4C" stroke-width="3" stroke-linecap="round" stroke-linejoin="round"/>
<path d="M14.0871 14.4412C15.4589 13.0676 16.2299 11.206 16.231 9.26469C16.2321 8.3032 16.0433 7.35095 15.6754 6.46262C15.3075 5.57429 14.7677 4.76739 14.0871 4.08823L11.4989 1.5L8.91072 4.08823C7.5389 5.46179 6.76789 7.32341 6.76685 9.26469C6.76789 11.206 7.5389 13.0676 8.91072 14.4412" stroke="#4C4C4C" stroke-width="3" stroke-linecap="round" stroke-linejoin="round"/>
<path d="M20.6031 11.9578L21.2464 14.3575C21.7578 16.268 21.4895 18.3034 20.5006 20.0161C19.5116 21.7289 17.883 22.9788 15.9728 23.4911L11.4995 24.6895V19.5429C11.6186 18.0056 12.2116 16.5432 13.1969 15.3572C14.1822 14.1712 15.5112 13.3201 17.0006 12.9212L20.6031 11.9578Z" stroke="#4C4C4C" stroke-width="3" stroke-linecap="round" stroke-linejoin="round"/>
</svg>
