<svg width="25" height="32" viewBox="0 0 25 32" fill="none" xmlns="http://www.w3.org/2000/svg">
<path d="M21.6774 5.16113H21.5019V7.22565H21.6774C21.9512 7.22565 22.2137 7.33441 22.4073 7.528C22.6009 7.72158 22.7097 7.98414 22.7097 8.25791V28.9031C22.7097 29.1769 22.6009 29.4395 22.4073 29.633C22.2137 29.8266 21.9512 29.9354 21.6774 29.9354H3.09677C2.823 29.9354 2.56044 29.8266 2.36686 29.633C2.17327 29.4395 2.06452 29.1769 2.06452 28.9031V8.25791C2.06452 7.98414 2.17327 7.72158 2.36686 7.528C2.56044 7.33441 2.823 7.22565 3.09677 7.22565H3.27226V5.16113H3.09677C2.27546 5.16113 1.48778 5.4874 0.907024 6.06816C0.326266 6.64892 0 7.4366 0 8.25791V28.9031C0 29.7244 0.326266 30.5121 0.907024 31.0929C1.48778 31.6736 2.27546 31.9999 3.09677 31.9999H21.6774C22.4987 31.9999 23.2864 31.6736 23.8672 31.0929C24.4479 30.5121 24.7742 29.7244 24.7742 28.9031V8.25791C24.7742 7.4366 24.4479 6.64892 23.8672 6.06816C23.2864 5.4874 22.4987 5.16113 21.6774 5.16113Z" fill="#4C4C4C"/>
<path d="M19.6127 3.09678H16.516V0H8.25791V3.09678H5.16113V9.29035H19.6127V3.09678ZM17.5482 7.22582H7.22565V5.1613H10.3224V2.06452H14.4515V5.1613H17.5482V7.22582Z" fill="#4C4C4C"/>
<path d="M6.19434 13.4197H18.5814V15.4842H6.19434V13.4197ZM6.19434 18.581H18.5814V20.6455H6.19434V18.581ZM6.19434 23.7423H18.5814V25.8068H6.19434V23.7423Z" fill="#4C4C4C"/>
</svg>
