<svg width="37" height="37" viewBox="0 0 37 37" fill="none" xmlns="http://www.w3.org/2000/svg">
<path fill-rule="evenodd" clip-rule="evenodd" d="M18.337 5.49902C17.8878 5.49896 17.4544 5.33407 17.1187 5.03562C16.7831 4.73717 16.5687 4.32593 16.5161 3.87988L16.5033 3.66534V1.83165C16.5038 1.36428 16.6828 0.914753 17.0036 0.574905C17.3245 0.235058 17.763 0.0305443 18.2295 0.00315476C18.6961 -0.0242348 19.1555 0.127563 19.5139 0.427536C19.8723 0.727509 20.1026 1.15302 20.1578 1.61711L20.1707 1.83165V3.66534C20.1707 4.15166 19.9775 4.61807 19.6336 4.96195C19.2897 5.30583 18.8233 5.49902 18.337 5.49902ZM27.4137 9.25808C27.07 8.91421 26.8768 8.44789 26.8768 7.96166C26.8768 7.47544 27.07 7.00911 27.4137 6.66525L28.7101 5.36883C28.8793 5.1937 29.0816 5.054 29.3053 4.9579C29.5291 4.8618 29.7697 4.81121 30.0131 4.8091C30.2566 4.80698 30.4981 4.85338 30.7234 4.94558C30.9488 5.03778 31.1535 5.17393 31.3257 5.3461C31.4979 5.51827 31.634 5.72301 31.7262 5.94836C31.8184 6.17372 31.8648 6.41517 31.8627 6.65865C31.8606 6.90212 31.81 7.14274 31.7139 7.36646C31.6178 7.59017 31.4781 7.79251 31.303 7.96166L30.0065 9.25808C29.6627 9.60184 29.1964 9.79496 28.7101 9.79496C28.2239 9.79496 27.7576 9.60184 27.4137 9.25808ZM6.66741 9.25808L5.371 7.96166C5.03698 7.61583 4.85215 7.15263 4.85633 6.67185C4.86051 6.19106 5.05335 5.73115 5.39333 5.39117C5.73331 5.05119 6.19322 4.85834 6.67401 4.85417C7.15479 4.84999 7.61799 5.03481 7.96383 5.36883L9.26024 6.66525C9.59426 7.01108 9.77908 7.47428 9.77491 7.95506C9.77073 8.43585 9.57789 8.89576 9.2379 9.23574C8.89792 9.57572 8.43801 9.76857 7.95723 9.77274C7.47644 9.77692 7.01325 9.5921 6.66741 9.25808ZM17.2056 36.6717C16.3116 36.6719 15.4483 36.3455 14.778 35.7539C14.1077 35.1623 13.6766 34.3462 13.5657 33.4591L12.8689 27.8847C10.7645 26.6793 9.11722 24.8124 8.18332 22.5743C7.24942 20.3361 7.08122 17.852 7.70485 15.5084C8.32848 13.1648 9.70901 11.0928 11.6318 9.6148C13.5545 8.13677 15.9118 7.33545 18.337 7.33545C20.7622 7.33545 23.1194 8.13677 25.0422 9.6148C26.965 11.0928 28.3455 13.1648 28.9691 15.5084C29.5927 17.852 29.4245 20.3361 28.4906 22.5743C27.5567 24.8124 25.9095 26.6793 23.805 27.8847L23.1082 33.4591C22.9974 34.3462 22.5663 35.1623 21.896 35.7539C21.2257 36.3455 20.3624 36.6719 19.4684 36.6717H17.2056ZM18.337 25.6696C20.2823 25.6696 22.1479 24.8968 23.5234 23.5213C24.899 22.1457 25.6717 20.2801 25.6717 18.3348C25.6717 16.3895 24.899 14.5239 23.5234 13.1484C22.1479 11.7728 20.2823 11.0001 18.337 11.0001C16.3917 11.0001 14.5261 11.7728 13.1505 13.1484C11.775 14.5239 11.0022 16.3895 11.0022 18.3348C11.0022 20.2801 11.775 22.1457 13.1505 23.5213C14.5261 24.8968 16.3917 25.6696 18.337 25.6696ZM33.0065 20.1685C32.5201 20.1685 32.0537 19.9753 31.7098 19.6314C31.366 19.2875 31.1728 18.8211 31.1728 18.3348C31.1728 17.8485 31.366 17.3821 31.7098 17.0382C32.0537 16.6943 32.5201 16.5011 33.0065 16.5011H34.8401C35.3265 16.5011 35.7929 16.6943 36.1368 17.0382C36.4806 17.3821 36.6738 17.8485 36.6738 18.3348C36.6738 18.8211 36.4806 19.2875 36.1368 19.6314C35.7929 19.9753 35.3265 20.1685 34.8401 20.1685H33.0065ZM1.83382 20.1685C1.3475 20.1685 0.881088 19.9753 0.537204 19.6314C0.193321 19.2875 0.000132957 18.8211 0.000132957 18.3348C0.000132957 17.8485 0.193321 17.3821 0.537204 17.0382C0.881088 16.6943 1.3475 16.5011 1.83382 16.5011H3.6675C4.15382 16.5011 4.62023 16.6943 4.96412 17.0382C5.308 17.3821 5.50119 17.8485 5.50119 18.3348C5.50119 18.8211 5.308 19.2875 4.96412 19.6314C4.62023 19.9753 4.15382 20.1685 3.6675 20.1685H1.83382ZM5.371 31.299C5.02723 30.9551 4.83412 30.4888 4.83412 30.0026C4.83412 29.5163 5.02723 29.05 5.371 28.7061L6.66741 27.4097C6.83656 27.2346 7.0389 27.0949 7.26262 26.9988C7.48633 26.9027 7.72695 26.8521 7.97043 26.85C8.2139 26.8479 8.45536 26.8943 8.68071 26.9865C8.90606 27.0787 9.1108 27.2148 9.28297 27.387C9.45514 27.5592 9.59129 27.7639 9.68349 27.9893C9.77569 28.2146 9.82209 28.4561 9.81998 28.6995C9.81786 28.943 9.76727 29.1836 9.67117 29.4074C9.57507 29.6311 9.43538 29.8334 9.26024 30.0026L7.96383 31.299C7.61996 31.6427 7.15364 31.8359 6.66741 31.8359C6.18118 31.8359 5.71486 31.6427 5.371 31.299ZM28.7101 31.299L27.4137 30.0026C27.088 29.6552 26.9101 29.1947 26.9179 28.7185C26.9256 28.2423 27.1183 27.7878 27.4551 27.4512C27.792 27.1146 28.2466 26.9222 28.7228 26.9148C29.199 26.9074 29.6594 27.0856 30.0065 27.4116L31.303 28.708C31.6287 29.0554 31.8066 29.5159 31.7988 29.992C31.7911 30.4682 31.5984 30.9227 31.2615 31.2593C30.9247 31.596 30.47 31.7883 29.9939 31.7957C29.5177 31.8031 29.0573 31.625 28.7101 31.299ZM17.2056 33.0043H19.4684L19.9268 29.3369H16.7472L17.2056 33.0043Z" fill="#4C4C4C"/>
</svg>
