<svg width="36" height="36" viewBox="0 0 36 36" fill="none" xmlns="http://www.w3.org/2000/svg">
<path d="M8.4375 12.375C9.36948 12.375 10.125 11.6195 10.125 10.6875C10.125 9.75552 9.36948 9 8.4375 9C7.50552 9 6.75 9.75552 6.75 10.6875C6.75 11.6195 7.50552 12.375 8.4375 12.375Z" fill="#4C4C4C"/>
<path d="M14.625 15.75C15.2463 15.75 15.75 15.2463 15.75 14.625C15.75 14.0037 15.2463 13.5 14.625 13.5C14.0037 13.5 13.5 14.0037 13.5 14.625C13.5 15.2463 14.0037 15.75 14.625 15.75Z" fill="#4C4C4C"/>
<path d="M24.75 24.75C25.3713 24.75 25.875 24.2463 25.875 23.625C25.875 23.0037 25.3713 22.5 24.75 22.5C24.1287 22.5 23.625 23.0037 23.625 23.625C23.625 24.2463 24.1287 24.75 24.75 24.75Z" fill="#4C4C4C"/>
<path d="M28.125 15.75C26.6136 15.7501 25.1214 16.0894 23.7585 16.7428C22.3955 17.3963 21.1966 18.3472 20.25 19.5255V14.625C20.2503 12.8439 19.8625 11.0841 19.1138 9.468L18.7133 8.59388L17.7874 8.85375C17.4914 8.9441 17.1844 8.99331 16.875 9C15.9802 8.99911 15.1223 8.64324 14.4895 8.0105C13.8568 7.37776 13.5009 6.51983 13.5 5.625C13.5068 5.31599 13.556 5.00937 13.6463 4.71375L13.9073 3.78675L13.0331 3.38513C11.4166 2.63657 9.65643 2.24922 7.87501 2.25H2.25001V10.125C2.24616 12.8187 3.12939 15.4388 4.76326 17.5804L5.20089 18.0619L5.80839 18.0191C7.06655 17.9469 8.31698 18.2584 9.39417 18.9125C10.4714 19.5666 11.3245 20.5324 11.8406 21.6821L12.0893 22.2413L12.6945 22.3358C13.3327 22.4409 13.9782 22.4958 14.625 22.5H18V33.75H20.25V29.25H23.625C26.3094 29.247 28.883 28.1793 30.7812 26.2812C32.6793 24.383 33.747 21.8094 33.75 19.125V15.75H28.125ZM13.6148 20.1904C12.8946 18.8541 11.8277 17.7365 10.5263 16.9552C9.22487 16.1738 7.73697 15.7575 6.21901 15.75C5.09578 14.0894 4.49694 12.1298 4.50001 10.125V4.5H7.87501C9.03575 4.49992 10.1877 4.70168 11.2793 5.09625C11.2591 5.27177 11.2494 5.44833 11.25 5.625C11.2447 6.40967 11.4047 7.18665 11.7197 7.90535C12.0347 8.62405 12.4975 9.26833 13.0781 9.79624C13.6586 10.3242 14.3439 10.7238 15.0892 10.9693C15.8345 11.2147 16.6231 11.3004 17.4038 11.2208C17.7983 12.3124 18.0001 13.4643 18 14.625V20.25H14.625C14.2874 20.2491 13.9501 20.2292 13.6148 20.1904ZM31.5 19.125C31.497 21.2127 30.6664 23.214 29.1902 24.6902C27.714 26.1664 25.7127 26.997 23.625 27H20.25V25.875C20.2529 24.1762 20.8043 22.5237 21.8221 21.1636C22.8399 19.8034 24.2696 18.8083 25.8986 18.3263C25.866 18.5552 25.8808 18.7884 25.9423 19.0114C26.0037 19.2344 26.1104 19.4423 26.2557 19.6222C26.401 19.8021 26.5818 19.9502 26.7868 20.0572C26.9919 20.1641 27.2168 20.2278 27.4475 20.244C27.6782 20.2603 27.9097 20.2289 28.1278 20.1517C28.3458 20.0745 28.5456 19.9533 28.7147 19.7955C28.8838 19.6378 29.0186 19.4469 29.1107 19.2347C29.2028 19.0226 29.2502 18.7938 29.25 18.5625C29.2478 18.3705 29.2128 18.1802 29.1465 18H31.5V19.125Z" fill="#4C4C4C"/>
</svg>
