<svg width="48" height="48" viewBox="0 0 48 48" fill="none" xmlns="http://www.w3.org/2000/svg">
<path d="M20.9148 4.85352H20.0496C18.3489 4.93177 16.6648 5.47157 15.3057 6.47477C13.1919 8.03512 11.5318 10.6694 11.5318 13.3887C9.85352 13.7796 8.04341 14.8192 6.99287 16.1236C6.42359 16.8304 6.00806 17.4804 5.62461 18.3921C5.22781 19.3355 5.02664 20.3109 5 21.2766V21.7184C5.08716 24.8949 7.05066 27.8962 10.1731 29.22C11.1731 29.6439 12.4367 29.8652 13.8328 29.8652H35.9519C37.1279 29.8652 38.0049 29.7054 38.869 29.368C39.6345 29.0692 40.4181 28.5604 40.9439 28.0286C44.2492 24.6855 43.3507 19.8283 39.8083 17.6967C39.3164 17.4007 38.359 16.9352 37.6591 16.877C37.6591 14.7338 36.7955 12.9974 35.7108 11.9227C35.0113 11.2295 34.6286 10.8711 33.726 10.4191C32.3286 9.71929 31.6151 9.67774 30.0881 9.67774C29.4189 9.67774 28.9996 9.88826 28.4552 9.90038C28.2791 9.14482 27.1564 7.84197 26.4694 7.21015L25.5821 6.46461C24.2663 5.46882 22.6083 4.93162 20.9148 4.85352Z" fill="#FAFAFA"/>
<path fill-rule="evenodd" clip-rule="evenodd" d="M16.2793 37.8027C16.2793 38.4773 16.7535 38.9902 17.5411 38.9902C18.5317 38.9902 18.9445 37.5939 19.57 36.3431C19.9955 35.4921 21.0297 33.7956 21.0297 32.9043C21.0297 32.3576 20.4224 31.8652 19.8421 31.8652C19.0547 31.8652 18.8294 32.4037 18.5555 32.9538C18.1753 33.7171 16.2793 37.2483 16.2793 37.8027V37.8027Z" fill="#FAFAFA"/>
<path fill-rule="evenodd" clip-rule="evenodd" d="M30.5293 41.8827C30.5293 42.8122 31.0054 43.1444 31.8654 43.1444C32.7068 43.1444 33.3252 41.4124 33.82 40.423C34.155 39.753 35.2797 37.7598 35.2797 37.1327C35.2797 36.2876 33.7542 35.1148 32.8053 37.0334C32.4245 37.8032 30.5293 41.3239 30.5293 41.8827H30.5293Z" fill="#FAFAFA"/>
<path fill-rule="evenodd" clip-rule="evenodd" d="M9.15433 41.8848C9.15433 42.6344 9.61762 43.1465 10.4162 43.1465C11.3178 43.1465 11.5341 42.3209 11.8512 41.6868L13.8319 37.7289C14.1673 36.9112 13.6612 36.0215 12.7171 36.0215C11.6979 36.0215 11.2603 37.4505 10.6636 38.6439C10.4142 39.1425 9.1543 41.4892 9.1543 41.8848L9.15433 41.8848Z" fill="#FAFAFA"/>
<path fill-rule="evenodd" clip-rule="evenodd" d="M38.6219 38.9902C39.4798 38.9902 39.6533 38.8661 40.156 37.8524L41.7146 34.735C41.9085 34.3472 42.4073 33.5112 42.4073 33.0527C42.4073 32.5063 41.8978 31.8652 41.2197 31.8652C40.2771 31.8652 40.0503 32.6452 39.7352 33.2754L37.754 37.232C37.5666 37.6393 37.5515 37.967 37.7517 38.3758C37.8904 38.6588 38.2373 38.9902 38.6219 38.9902V38.9902Z" fill="#FAFAFA"/>
<path fill-rule="evenodd" clip-rule="evenodd" d="M19.8418 41.8106C19.8418 42.6551 20.3295 43.0763 20.8604 43.1465H21.184C21.4622 43.1104 21.7275 42.9819 21.9157 42.771C22.2419 42.4056 23.5835 39.5973 23.8995 38.9655C24.2563 38.2518 24.5922 37.836 24.5922 37.0605C24.5922 36.5139 23.9849 36.0215 23.4046 36.0215C22.6334 36.0215 22.3966 36.549 22.1427 37.0605C21.8784 37.593 21.6275 38.0911 21.3511 38.6439C21.1241 39.0978 19.8418 41.5294 19.8418 41.8105V41.8106Z" fill="#FAFAFA"/>
<path fill-rule="evenodd" clip-rule="evenodd" d="M26.9668 37.6543C26.9668 38.6043 27.3528 38.9902 28.3029 38.9902C29.1412 38.9902 29.7476 37.2885 30.2327 36.3184C30.5404 35.703 31.7172 33.6045 31.7172 33.0527C31.7172 32.4064 31.176 31.8652 30.5296 31.8652C29.5006 31.8652 29.115 33.2099 28.476 34.4876C28.2076 35.0244 27.9669 35.5058 27.709 36.0215C27.5675 36.3046 26.9668 37.3724 26.9668 37.6543Z" fill="#FAFAFA"/>
<path fill-rule="evenodd" clip-rule="evenodd" d="M5.5918 37.7997C5.5918 38.3335 6.09198 38.9872 6.63095 38.9872C7.7543 38.9872 7.74713 38.6105 8.33812 37.4286L10.2909 33.517C10.4551 33.1039 10.4038 32.7176 10.1854 32.3901C9.76406 31.7586 8.87191 31.7208 8.35534 32.1763C8.13315 32.3722 5.59183 37.4846 5.59183 37.7997H5.5918Z" fill="#FAFAFA"/>
</svg>
