<svg width="19" height="24" viewBox="0 0 19 24" fill="none" xmlns="http://www.w3.org/2000/svg">
<path d="M12.9414 0.00293066H13.2295C13.2304 0.00815029 13.2315 0.0133418 13.2324 0.0185557C14.3924 0.125586 14.8322 0.696977 14.8369 0.703126L18.1895 4.27344C18.2108 4.29379 18.9959 5.05045 18.9961 6.28613L18.998 6.28809V23.001C18.9976 23.5528 18.55 24.001 17.998 24.001H1C0.448038 24.001 0.000433629 23.5528 0 23.001V1.00293C5.26587e-07 0.450701 0.44777 0.00293066 1 0.00293066H12.8428V9.7399e-07C12.8761 -5.43491e-05 12.909 0.00226287 12.9414 0.00293066ZM3 1.50098C2.17169 1.50098 1.50018 2.17271 1.5 3.00098V20.999C1.50007 21.8274 2.17161 22.499 3 22.499H15.998C16.8264 22.4989 17.498 21.8273 17.498 20.999V6.28516H14.0732C13.479 6.28496 12.8428 5.48463 12.8428 4.85156V1.50098H3Z" fill="#FAFAFA"/>
<rect x="4.53467" y="7.75171" width="9.9248" height="1.49985" rx="0.749926" fill="#FAFAFA"/>
<rect x="4.53467" y="11.2513" width="9.9248" height="1.49985" rx="0.749926" fill="#FAFAFA"/>
<rect x="4.53467" y="14.751" width="9.9248" height="1.49985" rx="0.749926" fill="#FAFAFA"/>
</svg>
