<svg width="22" height="25" viewBox="0 0 22 25" fill="none" xmlns="http://www.w3.org/2000/svg">
<path d="M0.791838 6.56651C0.801072 3.35144 3.40999 0.75 6.62507 0.75H20.6164L20.5407 17.8429L13.2892 17.8643L3.59732 17.8739C3.40742 17.874 3.21804 17.8937 3.03216 17.9326C2.52686 18.0382 2.06104 18.2827 1.68705 18.6385L1.40751 18.9045C0.994797 19.329 0.761465 19.8962 0.755977 20.4882L0.75 21.133L0.791838 6.56651Z" stroke="#FAFAFA" stroke-width="1.5"/>
<mask id="path-2-inside-1_95_4529" fill="white">
<path d="M21.9099 17.1138C21.5613 18.2803 21.366 19.5722 21.366 20.9321C21.366 22.2921 21.5613 23.5839 21.9099 24.7505H3.89917C1.79047 24.7505 0.0808839 23.0408 0.0808105 20.9321C0.0808105 18.8234 1.79042 17.1138 3.89917 17.1138H21.9099Z"/>
</mask>
<path d="M21.9099 17.1138L23.5866 17.6149L24.2594 15.3638H21.9099V17.1138ZM21.366 20.9321H19.616V20.9321L21.366 20.9321ZM21.9099 24.7505V26.5005H24.2594L23.5866 24.2494L21.9099 24.7505ZM0.0808105 20.9321H-1.66917V20.9322L0.0808105 20.9321ZM21.9099 17.1138L20.2332 16.6127C19.835 17.9453 19.616 19.4061 19.616 20.9321H21.366H23.1159C23.1159 19.7382 23.2876 18.6153 23.5866 17.6149L21.9099 17.1138ZM21.366 20.9321L19.616 20.9321C19.616 22.4581 19.8349 23.919 20.2332 25.2516L21.9099 24.7505L23.5866 24.2494C23.2876 23.2489 23.1159 22.1261 23.1159 20.9321L21.366 20.9321ZM21.9099 24.7505V23.0005H3.89917V24.7505V26.5005H21.9099V24.7505ZM3.89917 24.7505V23.0005C2.75702 23.0005 1.83083 22.0744 1.83079 20.9321L0.0808105 20.9321L-1.66917 20.9322C-1.66906 24.0073 0.823923 26.5005 3.89917 26.5005V24.7505ZM0.0808105 20.9321H1.83079C1.83079 19.7899 2.75691 18.8637 3.89917 18.8637V17.1138V15.3638C0.823938 15.3638 -1.66917 17.8569 -1.66917 20.9321H0.0808105ZM3.89917 17.1138V18.8637H21.9099V17.1138V15.3638H3.89917V17.1138Z" fill="#FAFAFA" mask="url(#path-2-inside-1_95_4529)"/>
<line x1="8.11328" y1="20.842" x2="19.867" y2="20.842" stroke="#FAFAFA" stroke-width="1.5" stroke-linecap="round"/>
<path d="M7.48642 11.8066H5.65245L5.35845 12.6746H4.10547L5.88345 7.76062H7.26943L9.0474 12.6746H7.78042L7.48642 11.8066ZM7.17843 10.8826L6.56944 9.0836L5.96744 10.8826H7.17843Z" fill="#FAFAFA"/>
<path d="M12.5985 9.72059V10.7146H9.51853V9.72059H12.5985Z" fill="#FAFAFA"/>
<path d="M14.923 11.6946H17.037V12.6746H13.565V11.7646L15.665 8.74061H13.565V7.76062H17.037V8.67061L14.923 11.6946Z" fill="#FAFAFA"/>
</svg>
