<svg width="22" height="22" viewBox="0 0 22 22" fill="none" xmlns="http://www.w3.org/2000/svg">
<path d="M10.8594 0.149658C16.7685 0.149658 21.5691 4.95052 21.5693 10.8596C21.5693 16.2768 17.5359 20.7524 12.3096 21.4612L11.7646 21.5354C11.722 21.5411 11.679 21.5275 11.6465 21.4993C11.6139 21.4708 11.5947 21.4293 11.5947 21.386V13.051C11.5947 12.9682 11.6623 12.9006 11.7451 12.9006H14.2939L14.5088 11.512H11.7451C11.6623 11.512 11.5947 11.4444 11.5947 11.3616V9.43286C11.5948 8.81819 11.685 8.1968 11.9873 7.66919C12.2956 7.13136 12.8896 6.72681 13.6143 6.72681H14.6387V5.62817C14.3397 5.59083 13.9785 5.54811 13.2021 5.5481C12.0986 5.5481 11.3324 5.82897 10.8213 6.3606C10.3092 6.89332 9.9834 7.75981 9.9834 9.11938V11.3625C9.9834 11.4454 9.91585 11.5129 9.83301 11.5129H7.48828V12.9016H9.83301C9.91585 12.9016 9.9834 12.9692 9.9834 13.052V21.3733C9.98336 21.417 9.96377 21.4581 9.93066 21.4866C9.89754 21.515 9.85373 21.5283 9.81055 21.5217L9.25977 21.4377C4.10674 20.6636 0.149414 16.2244 0.149414 10.8596C0.149647 4.95067 4.95042 0.149891 10.8594 0.149658ZM15.8984 7.83618C15.8984 7.91897 15.8318 7.98649 15.749 7.98657H13.6143C13.448 7.98657 13.3513 8.01344 13.2822 8.05591C13.2122 8.09902 13.1521 8.16965 13.0801 8.29517C12.945 8.53081 12.8545 8.94727 12.8545 9.43286V10.2512H15.8037C15.8473 10.2514 15.8886 10.2709 15.917 10.304C15.9454 10.3371 15.9577 10.3809 15.9512 10.4241L15.3936 14.0334C15.3823 14.1066 15.3191 14.1614 15.2451 14.1614H12.8545V20.0491C17.1098 19.1301 20.3096 15.3923 20.3096 10.8596C20.3093 5.63503 16.084 1.4104 10.8594 1.4104C5.63493 1.41063 1.41039 5.63517 1.41016 10.8596C1.41016 15.3413 4.53969 19.0441 8.72363 20.0159V14.1624H6.37891C6.29608 14.1624 6.22854 14.0948 6.22852 14.012V10.4026C6.22852 10.3197 6.29606 10.2522 6.37891 10.2522H8.72363V9.11938C8.72363 7.55974 9.10815 6.32504 9.91309 5.48755C10.7192 4.64904 11.8791 4.28833 13.2021 4.28833C14.3963 4.28835 15.0606 4.38065 15.3525 4.42017L15.7686 4.47583C15.8428 4.48586 15.8982 4.54939 15.8984 4.62427V7.83618Z" fill="#F4F4F4" stroke="#F4F4F4" stroke-width="0.3" stroke-linejoin="round"/>
</svg>
