<svg width="26" height="24" viewBox="0 0 26 24" fill="none" xmlns="http://www.w3.org/2000/svg">
<path d="M4.67383 0.75C5.06066 0.75 5.1837 0.838924 5.26953 0.922852C5.42533 1.07522 5.54499 1.30485 5.8291 1.81543C5.95567 2.04288 6.06731 2.24708 6.20898 2.4834V2.48438L7.34375 4.44824C7.34674 4.45341 7.34943 4.45877 7.35254 4.46387C7.48562 4.68187 7.52891 4.87672 7.51855 5.03027C7.50883 5.17353 7.45061 5.32827 7.29004 5.48535C7.31219 5.46369 7.3049 5.4736 7.22266 5.53223C7.15649 5.57938 7.06698 5.64039 6.95898 5.71191C6.74335 5.85473 6.46839 6.02913 6.19043 6.20117C5.91222 6.37336 5.63592 6.53957 5.41699 6.66504C5.30702 6.72806 5.21673 6.77811 5.15039 6.8125C5.05598 6.86144 5.07066 6.84668 5.13281 6.83008C4.93785 6.88215 4.77194 7.01073 4.67285 7.18652C4.57377 7.36232 4.55005 7.5709 4.60645 7.76465L5.04785 9.28027C5.05051 9.28937 5.05267 9.29863 5.05566 9.30762C5.30321 10.049 5.63259 10.7541 5.95801 11.417V11.418C5.97175 11.446 5.98454 11.4752 6.00781 11.5332C6.0293 11.5867 6.0605 11.6665 6.10254 11.7539C6.10827 11.7658 6.11473 11.7775 6.12109 11.7891L6.94824 13.2988C6.95323 13.3079 6.95851 13.3173 6.96387 13.3262C7.45913 14.1475 7.94433 14.9029 8.52246 15.6758C8.52871 15.6841 8.53541 15.6921 8.54199 15.7002L9.39648 16.748V16.7471C9.52094 16.9056 9.70914 17.1179 9.89551 17.3096C10.0753 17.4945 10.3097 17.7205 10.5068 17.8525C10.7354 18.0056 11.0299 18.0214 11.2734 17.8936L12.3428 17.332L12.3486 17.3291C12.5799 17.205 12.8462 17.0407 13.043 16.9268C13.2626 16.7996 13.4502 16.7006 13.624 16.6367C13.9353 16.5223 14.1346 16.5332 14.3643 16.707C14.3603 16.7041 14.411 16.7491 14.5146 16.8936C14.6072 17.0226 14.7108 17.1867 14.8184 17.3682C15.0523 17.7629 15.2183 18.0848 15.3809 18.3672C15.6221 18.7863 15.8724 19.2436 16.1416 19.6914C16.3801 20.0881 16.5414 20.3166 16.6279 20.5752C16.6911 20.7641 16.6956 20.9218 16.5703 21.1387C16.5128 21.238 16.3589 21.381 16.04 21.5537C15.7295 21.7219 15.3859 21.8561 15.0166 22.0137L14.9883 22.0264L13.5908 22.6943C13.5859 22.6967 13.5801 22.6987 13.5752 22.7012C13.1489 22.9164 12.9177 23.045 12.7021 23.1475C12.5022 23.2426 12.4448 23.2491 12.4297 23.25C12.4254 23.2503 12.3817 23.2555 12.2119 23.1865C12.0267 23.1113 11.7877 22.9899 11.3848 22.79C10.9912 22.5948 10.6325 22.3624 10.2705 22.1064C9.88185 21.8317 9.63532 21.6245 9.41602 21.4307C9.21556 21.2535 9.00151 21.0561 8.72949 20.835L6.0166 17.7334C3.37926 14.216 0.766522 9.00683 0.75 4.60742L0.922852 3.25195L3.60156 1.40039C3.60657 1.39693 3.61226 1.39421 3.61719 1.39062C3.80965 1.25051 4.03876 1.0788 4.27539 0.9375C4.39207 0.867845 4.49409 0.815174 4.57715 0.782227C4.66701 0.746599 4.69413 0.75 4.67383 0.75Z" stroke="#FAFAFA" stroke-width="1.49999" stroke-linejoin="round"/>
<path d="M25.2256 15.5977C25.2256 15.7266 25.2297 15.8644 25.2344 15.9932C25.2392 16.1261 25.2442 16.2534 25.2461 16.3818C25.2499 16.6437 25.2403 16.8645 25.2051 17.041C25.1694 17.2195 25.1213 17.2841 25.1035 17.3018C25.097 17.3082 25.0864 17.3157 25.0635 17.3242C25.0379 17.3337 24.9844 17.3476 24.8887 17.3477H17.9902C17.9876 17.3432 17.9853 17.3379 17.9824 17.333C17.8539 17.1152 17.7219 16.8689 17.5664 16.5859C17.4152 16.3108 17.2466 16.0111 17.0625 15.7217C16.7094 15.1666 16.2299 14.5368 15.5732 14.2031C14.3323 13.5724 13.2754 13.7515 12.4512 14.1123C12.0611 14.2831 11.7172 14.4969 11.46 14.6533C11.4 14.6897 11.3447 14.719 11.2969 14.7471C11.2958 14.7458 11.294 14.7445 11.293 14.7432C11.1391 14.5573 10.9602 14.3204 10.7764 14.0664C10.4096 13.5596 10.0465 13.0159 9.86035 12.7363C9.58604 12.3243 9.00305 11.3075 8.48535 10.29C8.22795 9.78416 7.99443 9.29294 7.82715 8.88867C7.76883 8.74772 7.72219 8.62181 7.68457 8.51367C7.73205 8.48376 7.78181 8.45064 7.83496 8.41797C8.11505 8.24581 8.50475 8.01749 8.63379 7.93359C8.65074 7.92257 8.66576 7.90912 8.68164 7.89844C8.74613 7.94487 8.81072 7.99347 8.87891 8.04395C8.95233 8.0983 9.03759 8.16164 9.11328 8.21191C9.29853 8.33493 9.40204 8.40048 9.56445 8.51074C9.62825 8.55405 9.67682 8.58985 9.74121 8.6377C9.80588 8.68575 9.8823 8.74243 9.9834 8.80957V8.80859L13.3994 11.1406L13.4082 11.1465C13.4831 11.1961 13.6014 11.2825 13.7686 11.4043C13.927 11.5197 14.1167 11.6574 14.3086 11.7881C14.4979 11.917 14.7058 12.0504 14.9023 12.1543C15.0007 12.2063 15.1095 12.2578 15.2207 12.2979C15.3052 12.3283 15.4247 12.3625 15.5615 12.374C15.5901 12.3773 15.619 12.3799 15.6484 12.3799C15.6863 12.3799 15.7234 12.3755 15.7598 12.3701C15.8981 12.3516 16.0081 12.3074 16.0449 12.292C16.1253 12.2585 16.2094 12.2158 16.2891 12.1729C16.4503 12.0859 16.6457 11.9679 16.8564 11.835C17.281 11.5671 17.8101 11.2108 18.334 10.8506C19.4086 10.1116 20.4228 9.38357 20.6504 9.23242L20.6592 9.22754L23.8223 7.06445L23.8213 7.06348C24.0193 6.93089 24.6196 6.50283 25.1523 6.13379C25.1767 6.11691 25.2014 6.10068 25.2256 6.08398V15.5977Z" stroke="#FAFAFA" stroke-width="1.49999" stroke-linejoin="round"/>
<path fill-rule="evenodd" clip-rule="evenodd" d="M9.56113 4.94579C9.56113 5.34198 9.40564 5.63998 9.39808 5.97847C9.67482 6.12492 9.91807 6.30719 10.1919 6.48906L15.6485 10.2179C15.8378 10.0911 16.0021 9.96286 16.1918 9.8372C16.3891 9.70653 16.5747 9.5859 16.7796 9.44675L18.4856 8.27205C19.0348 7.90692 24.6538 4.08459 24.7794 3.91309H9.34375C9.40688 4.18411 9.56113 4.45083 9.56113 4.94579Z" stroke="#FAFAFA" stroke-width="1.49999" stroke-linejoin="round"/>
</svg>
