<svg width="24" height="18" viewBox="0 0 24 18" fill="none" xmlns="http://www.w3.org/2000/svg">
<path d="M21.6036 0H2.40089C2.08346 0 1.77496 0.0625926 1.47988 0.178838C1.18927 0.299553 0.929956 0.464977 0.701937 0.688525C0.47839 0.9076 0.304023 1.15797 0.183308 1.44411C0.0625929 1.73472 0 2.02981 0 2.34277V14.8301C0 15.1386 0.0625929 15.4382 0.183308 15.7243C0.304023 16.0104 0.47839 16.2653 0.701937 16.4844C0.929956 16.7034 1.18927 16.8733 1.47988 16.9896C1.77496 17.1103 2.08346 17.1684 2.40089 17.1684H21.6036C21.921 17.1684 22.225 17.1103 22.5201 16.9896C22.8152 16.8733 23.0745 16.7034 23.2981 16.4844C23.5216 16.2653 23.696 16.0104 23.8212 15.7243C23.9419 15.4382 24 15.1386 24 14.8301V2.34277C24 2.02981 23.9419 1.73472 23.8212 1.44411C23.696 1.15797 23.5216 0.9076 23.2981 0.688525C23.0745 0.464977 22.8152 0.299553 22.5201 0.178838C22.225 0.0625926 21.921 0 21.6036 0ZM1.6006 2.4769L8.23994 8.02981L1.6006 14.5037V2.4769ZM12.5231 8.68256C12.3711 8.80775 12.1967 8.87034 12 8.87034C11.8033 8.87034 11.6289 8.80775 11.4814 8.68256L2.95976 1.56036H21.0402L12.5231 8.68256ZM9.46051 9.04918L10.4396 9.86736C10.6587 10.0417 10.9046 10.1759 11.1729 10.2697C11.4411 10.3636 11.7139 10.4128 12 10.4128C12.2861 10.4128 12.5633 10.3636 12.8316 10.2697C13.0999 10.1759 13.3413 10.0417 13.5648 9.86736L14.544 9.04471L21.2683 15.608H2.73174L9.46051 9.04918ZM15.7601 8.03428L22.3994 2.4769V14.5037L15.7601 8.03428Z" fill="#F4F4F4"/>
</svg>
