<svg width="24" height="24" viewBox="0 0 24 24" fill="none" xmlns="http://www.w3.org/2000/svg">
<rect x="2" width="2" height="3" rx="1" fill="#2C2825"/>
<rect x="11" width="2" height="3" rx="1" fill="#2C2825"/>
<rect x="20" width="2" height="3" rx="1" fill="#2C2825"/>
<path d="M1 4C1 3.44771 1.44772 3 2 3L22 3C22.5523 3 23 3.44771 23 4L1 4Z" stroke="#2C2825" stroke-width="1.5"/>
<path d="M23 6V22C23 22.5523 22.5523 23 22 23H2C1.44772 23 1 22.5523 1 22V6H23Z" stroke="#2C2825" stroke-width="2"/>
<rect x="4.5" y="8" width="3" height="3" rx="0.5" fill="#2C2825"/>
<rect x="10.5" y="8" width="3" height="3" rx="0.5" fill="#2C2825"/>
<rect x="16.5" y="8" width="3" height="3" rx="0.5" fill="#2C2825"/>
<rect x="4.5" y="13" width="3" height="3" rx="0.5" fill="#2C2825"/>
<rect x="10.5" y="13" width="3" height="3" rx="0.5" fill="#2C2825"/>
<rect x="16.5" y="13" width="3" height="3" rx="0.5" fill="#2C2825"/>
<rect x="4.5" y="18" width="3" height="3" rx="0.5" fill="#2C2825"/>
<rect x="10.5" y="18" width="3" height="3" rx="0.5" fill="#2C2825"/>
<rect x="16.5" y="18" width="3" height="3" rx="0.5" fill="#2C2825"/>
</svg>
