<svg width="25" height="24" viewBox="0 0 25 24" fill="none" xmlns="http://www.w3.org/2000/svg">
<mask id="path-1-inside-1_99_12618" fill="white">
<path d="M22.3633 0C23.267 0 24 0.73298 24 1.63672V22.3643L23.9912 22.5312C23.9074 23.3564 23.2105 24 22.3633 24H1.63672L1.46875 23.9922C0.698757 23.9139 0.0870152 23.3013 0.00878906 22.5312L0 22.3643V1.63672C0 0.789579 0.643765 0.0927423 1.46875 0.00878906L1.63672 0H22.3633ZM1.63672 1.5C1.56141 1.5 1.5 1.56141 1.5 1.63672V22.3643C1.50018 22.4394 1.56152 22.5 1.63672 22.5H22.3633C22.4385 22.5 22.4998 22.4394 22.5 22.3643V1.63672C22.5 1.56141 22.4386 1.5 22.3633 1.5H1.63672Z"/>
</mask>
<path d="M22.3633 0C23.267 0 24 0.73298 24 1.63672V22.3643L23.9912 22.5312C23.9074 23.3564 23.2105 24 22.3633 24H1.63672L1.46875 23.9922C0.698757 23.9139 0.0870152 23.3013 0.00878906 22.5312L0 22.3643V1.63672C0 0.789579 0.643765 0.0927423 1.46875 0.00878906L1.63672 0H22.3633ZM1.63672 1.5C1.56141 1.5 1.5 1.56141 1.5 1.63672V22.3643C1.50018 22.4394 1.56152 22.5 1.63672 22.5H22.3633C22.4385 22.5 22.4998 22.4394 22.5 22.3643V1.63672C22.5 1.56141 22.4386 1.5 22.3633 1.5H1.63672Z" fill="#FAFAFA"/>
<path d="M24 1.63672L25.5 1.63672L24 1.63672ZM24 22.3643L25.4979 22.4431L25.5 22.4037V22.3643H24ZM23.9912 22.5312L25.4835 22.6829L25.4872 22.6465L25.4891 22.6101L23.9912 22.5312ZM1.63672 24L1.56703 25.4984L1.60185 25.5H1.63672V24ZM1.46875 23.9922L1.31695 25.4845L1.35792 25.4887L1.39906 25.4906L1.46875 23.9922ZM0.00878906 22.5312L-1.48914 22.6101L-1.48722 22.6465L-1.48353 22.6829L0.00878906 22.5312ZM0 22.3643H-1.5V22.4037L-1.49793 22.4431L0 22.3643ZM0 1.63672H-1.5H0ZM1.46875 0.00878906L1.39037 -1.48916L1.35356 -1.48724L1.31689 -1.4835L1.46875 0.00878906ZM1.63672 0V-1.5H1.5975L1.55834 -1.49795L1.63672 0ZM1.5 1.63672H-1.19209e-07H1.5ZM1.5 22.3643L-4.522e-06 22.3643L4.28357e-06 22.3679L1.5 22.3643ZM22.5 22.3643L24 22.3679V22.3643H22.5ZM22.5 1.63672L24 1.63672L22.5 1.63672ZM22.3633 0V1.5C22.4386 1.5 22.5 1.56141 22.5 1.63672L24 1.63672L25.5 1.63672C25.5 -0.0954472 24.0954 -1.5 22.3633 -1.5V0ZM24 1.63672H22.5V22.3643H24H25.5V1.63672H24ZM24 22.3643L22.5021 22.2854L22.4933 22.4524L23.9912 22.5312L25.4891 22.6101L25.4979 22.4431L24 22.3643ZM23.9912 22.5312L22.4989 22.3796C22.4921 22.4465 22.4333 22.5 22.3633 22.5V24V25.5C23.9877 25.5 25.3227 24.2663 25.4835 22.6829L23.9912 22.5312ZM22.3633 24V22.5H1.63672V24V25.5H22.3633V24ZM1.63672 24L1.70641 22.5016L1.53844 22.4938L1.46875 23.9922L1.39906 25.4906L1.56703 25.4984L1.63672 24ZM1.46875 23.9922L1.62055 22.4999C1.55994 22.4937 1.50746 22.4422 1.50111 22.3796L0.00878906 22.5312L-1.48353 22.6829C-1.33343 24.1603 -0.16243 25.334 1.31695 25.4845L1.46875 23.9922ZM0.00878906 22.5312L1.50672 22.4524L1.49793 22.2854L0 22.3643L-1.49793 22.4431L-1.48914 22.6101L0.00878906 22.5312ZM0 22.3643H1.5V1.63672H0H-1.5V22.3643H0ZM0 1.63672L1.5 1.63672C1.5 1.56703 1.55348 1.50791 1.62061 1.50108L1.46875 0.00878906L1.31689 -1.4835C-0.265951 -1.32243 -1.5 0.0121232 -1.5 1.63672L0 1.63672ZM1.46875 0.00878906L1.54713 1.50674L1.7151 1.49795L1.63672 0L1.55834 -1.49795L1.39037 -1.48916L1.46875 0.00878906ZM1.63672 0V1.5H22.3633V0V-1.5H1.63672V0ZM1.63672 1.5V-1.19209e-07C0.732962 -1.19209e-07 -1.19203e-07 0.732998 -1.19209e-07 1.63672L1.5 1.63672L3 1.63672C3 2.38982 2.38985 3 1.63672 3V1.5ZM1.5 1.63672H-1.19209e-07V22.3643H1.5H3V1.63672H1.5ZM1.5 22.3643L4.28357e-06 22.3679C0.00221181 23.279 0.743491 24 1.63672 24V22.5V21C2.37955 21 2.99815 21.5998 3 22.3606L1.5 22.3643ZM1.63672 22.5V24H22.3633V22.5V21H1.63672V22.5ZM22.3633 22.5V24C23.2565 24 23.9978 23.279 24 22.3679L22.5 22.3643L21 22.3606C21.0018 21.5998 21.6204 21 22.3633 21V22.5ZM22.5 22.3643H24V1.63672H22.5H21V22.3643H22.5ZM22.5 1.63672L24 1.63672C24 0.732972 23.267 -1.19209e-07 22.3633 -1.19209e-07V1.5V3C21.6102 3 21 2.38984 21 1.63672L22.5 1.63672ZM22.3633 1.5V-1.19209e-07H1.63672V1.5V3H22.3633V1.5Z" fill="#FAFAFA" mask="url(#path-1-inside-1_99_12618)"/>
<path fill-rule="evenodd" clip-rule="evenodd" d="M13.4673 17.5682C14.3928 17.5029 14.3773 18.2669 15.0125 18.4343C15.8144 18.6456 15.6984 19.3074 16.5036 19.3233C16.0855 19.2166 15.9347 18.8117 15.7088 18.4956C15.3789 18.0339 14.8662 18.2155 14.8212 17.744C15.1261 17.7158 15.0618 17.9299 15.4728 17.931C15.9554 17.9325 15.8172 17.8597 16.1863 18.0686C16.652 18.3323 16.918 18.2876 17.2195 18.7057C17.129 18.5393 17.0031 18.3148 16.8263 18.1906C16.5859 18.0217 16.3949 18.042 16.2484 17.7898C17.1819 17.5973 17.1901 18.0929 17.6928 18.2927C17.335 17.9295 17.1346 17.5817 16.5717 17.542C16.0238 17.5035 15.3514 17.7795 15.0533 17.3285C14.8244 17.2823 14.6216 17.123 14.2609 17.0645C13.2695 16.9995 12.6993 15.2973 12.643 14.4911C12.6287 14.2872 12.6842 13.94 12.6879 13.6863C12.692 13.4003 12.6763 13.1952 12.8941 13.0677L13.4119 12.7465C13.4537 12.5922 13.4563 12.6325 13.52 12.5468C13.583 12.4483 13.6296 12.2154 13.7028 12.1079L13.8973 11.7822C13.9523 11.6219 13.9665 11.6479 14.0376 11.5273C14.0863 11.4448 14.1015 11.3979 14.1759 11.3398L14.1781 11.3285C14.2857 11.3684 14.3889 11.301 14.5026 11.258C14.7249 11.1739 14.4529 11.1996 14.725 11.0492L14.9444 10.9207C14.9746 11.0659 14.9184 10.9279 14.9978 11.0062L15.2624 11.0375C15.2735 11.0319 15.2898 11.0198 15.2991 11.0145C15.3088 11.009 15.3235 10.9965 15.3369 10.9893L15.3861 11.2151L15.5354 11.0663L15.6055 11.2841C15.6175 11.2803 15.8356 11.2073 15.8356 11.2073L16.1651 11.0162C16.2729 10.9511 16.36 10.9414 16.4825 10.9895C16.4102 10.6345 16.4889 10.7268 16.528 10.6494L16.5545 10.5069C16.9899 10.3698 16.913 10.4536 17.0791 10.5092L17.3438 10.3425L17.3246 10.176C17.3272 10.1739 17.3392 10.1676 17.3426 10.1658L17.4854 10.1312L17.6513 9.87124C17.8079 9.95159 17.7987 10.0099 17.9869 10.0753L17.9194 9.88634L18.2221 9.97289C18.1914 9.88715 18.1784 9.8595 18.2228 9.74531C18.225 9.73944 18.2311 9.72674 18.2338 9.72126C18.3081 9.57242 18.2414 9.70279 18.3768 9.56709C18.193 9.45691 18.2324 9.44017 18.347 9.29937C18.1727 9.1482 18.2178 9.28105 18.2296 9.14311C18.2467 8.94159 18.2933 9.22891 18.2466 8.94326C18.2684 8.98283 18.2819 9.03857 18.3196 9.09428C18.404 9.21908 18.3382 9.14332 18.4143 9.19188C18.5805 9.02135 18.3945 9.07101 18.5547 8.91019C18.8333 8.63023 18.6155 8.79877 18.6895 8.66432L18.967 8.74583C18.9217 8.59961 18.9673 8.75775 18.8814 8.63735C18.8083 8.5349 18.8338 8.42812 18.9161 8.34259L18.9979 8.27812C19.218 8.07184 18.988 8.27952 19.2092 8.20256C19.1959 8.17256 19.1202 8.02587 19.12 8.02265C19.1106 7.84512 19.0501 8.20456 19.193 7.91602L19.0545 7.70342L19.305 7.69535C19.1034 7.56402 19.1404 7.5572 19.1303 7.46616C19.1298 7.46234 19.1295 7.44947 19.129 7.44551C19.1048 7.25949 19.0777 7.38018 19.1514 7.148C18.9514 7.17857 18.8115 7.15959 18.6627 7.07564L18.8808 7.09307C18.7723 6.85544 18.7848 7.00554 18.8951 6.7728L18.6367 6.70261L18.7005 6.588C18.5098 6.4791 18.3255 6.48673 18.1444 6.41168C18.3548 6.18625 18.3742 6.3518 18.4988 6.24136C18.6037 6.14841 18.4869 6.06582 18.7098 5.97064L18.5749 5.81902C18.5217 5.78363 18.624 5.82153 18.496 5.78601C18.496 5.78601 18.3851 5.77228 18.3702 5.76993C18.5257 5.52497 18.3596 5.62105 18.3304 5.58804C18.2717 5.52143 18.3102 5.48919 18.2309 5.44206L18.1035 5.40226C18.027 5.3907 17.9857 5.40604 17.943 5.39675C18.0204 5.35367 18.1556 5.29119 18.2174 5.2146L18.3589 5.01594L18.0283 4.9212C18.0639 4.7165 18.0232 4.78368 18.1626 4.66796C17.9749 4.60195 18.0582 4.69427 18.0328 4.55931C18.0271 4.56226 17.9194 4.60767 17.9155 4.6082L17.8055 4.59474C17.6003 4.56569 17.7442 4.63656 17.6471 4.5883C17.9196 3.85895 17.7489 4.45206 17.6298 4.05067L17.1809 4.07146C17.1755 4.07027 17.1623 4.06583 17.1564 4.06422C17.007 4.02359 16.8836 3.96567 16.6639 4.16927C16.5057 4.31582 16.5632 4.32631 16.5067 4.41541L15.9912 4.54358C15.847 4.64428 15.9387 4.62995 15.8972 4.56143L15.9272 4.36992L15.5405 4.29053C15.3746 4.27667 15.4292 4.28189 15.3199 4.35217C15.0598 4.51939 15.1379 4.4399 14.8445 4.4447C14.894 4.31683 14.8667 4.31338 14.9213 4.20785L14.8301 4.18437C14.7497 4.16873 14.8299 4.19778 14.7634 4.17547C14.9951 3.9503 14.637 4.10617 15.0137 3.82737L14.9496 3.64406C14.949 3.639 14.949 3.62544 14.9487 3.62067C14.9485 3.6162 14.951 3.60298 14.9509 3.59872C14.947 3.42708 14.9121 3.47281 14.8432 3.47025C14.7497 3.4668 14.7663 3.47752 14.688 3.52635C14.6699 3.48834 14.7615 3.4331 14.4248 3.43352C14.5394 3.36842 14.5682 3.34971 14.5932 3.25387C14.6284 3.11861 14.486 3.33702 14.6509 3.06141C14.3678 3.11816 14.5824 3.05837 14.4069 2.99122C14.3528 2.97051 14.2602 2.96342 14.2142 2.88823L14.1906 2.81789C14.1868 2.80683 14.1828 2.75267 14.1819 2.73188C13.9468 2.89946 14.1411 2.90175 13.9315 2.75008C13.8433 2.84503 13.8759 2.87092 13.7208 2.88811C13.5057 2.91191 13.7281 2.8834 13.6141 2.87345C13.4058 2.85528 13.3432 2.9552 13.2119 2.63845C13.0718 2.60758 13.3483 2.63484 13.1578 2.65808C13.0096 2.67613 13.3129 2.73938 13.089 2.65591C13.036 2.63615 13.0125 2.58807 12.9809 2.55428L12.9519 2.80776C12.9386 2.79799 12.8782 2.74892 12.8717 2.74942C12.8469 2.75133 12.6136 2.97242 12.6401 2.48791C12.3156 2.5886 12.4348 2.46637 12.357 2.41304C12.2415 2.33388 12.1783 2.36543 12.0886 2.21423C11.9143 2.31729 12.1028 2.16883 11.7229 2.35646L11.6734 2.37967C11.4922 2.44944 11.6141 2.37455 11.4797 2.40097C11.4703 2.40279 11.4418 2.40937 11.4322 2.41337L11.0846 2.70971C10.9652 2.86719 11.0694 2.81109 11.0204 2.97159C10.8748 2.92973 10.9618 2.95782 10.8396 2.84512C10.759 2.98696 10.666 3.03984 10.5456 3.14382C10.4035 2.97388 10.4318 2.85718 10.2543 2.78806C10.1968 2.89559 10.1461 3.04422 10.1164 3.14945C10.1085 3.14364 10.0977 3.12222 10.0949 3.12916L10.0282 3.06111C9.96804 2.99745 10.0037 3.02051 9.9257 2.95118L9.89847 3.06439C9.89444 3.23698 9.96828 3.1002 9.88446 3.27863C9.88213 3.28366 9.87494 3.29635 9.87249 3.30172C9.86983 3.30761 9.86362 3.32162 9.86102 3.32766C9.8583 3.33413 9.85263 3.34968 9.85021 3.35588C9.8477 3.36234 9.84203 3.38037 9.84006 3.38582C9.838 3.39139 9.83537 3.40721 9.83029 3.41674C9.71354 3.35287 9.47638 3.24234 9.36282 3.25321C9.13002 3.27556 8.90708 3.4508 8.86154 3.46626C8.75401 3.35632 8.80405 3.45092 8.73343 3.26287C8.50852 3.27356 8.47815 3.30979 8.3106 3.21356C8.17428 3.59705 8.18276 3.30222 7.87642 3.54449L7.69172 3.38802C7.62899 3.46242 7.67503 3.39649 7.62779 3.4903C7.39676 3.94899 7.70815 4.08317 7.77784 4.16012C7.58396 4.13376 7.56422 4.07715 7.47586 4.0364C7.33521 3.9716 7.41118 4.15157 7.05828 3.89205C6.94209 4.07337 7.11633 3.93215 6.96765 4.10876C6.96245 4.11496 6.95063 4.12396 6.94516 4.13072L6.85337 4.29279C6.56384 4.27 6.69102 4.19713 6.57898 4.34466L6.21852 4.35187C6.23507 4.49353 6.26218 4.5092 6.31539 4.58729C6.16632 4.61687 6.13052 4.65727 6.04739 4.77846C6.05614 4.78699 6.0722 4.78487 6.07713 4.79989L6.3013 4.89823C6.35266 5.06376 6.2591 5.10448 6.20371 5.15894L6.25833 5.20429C6.45675 5.39371 6.3678 5.53308 6.69687 5.55548L6.71941 5.73623C6.53783 5.70837 6.57883 5.72965 6.49205 5.5817C6.28535 5.67316 6.51337 5.68496 5.96748 5.69509L5.83033 5.87754C5.78583 5.97791 5.96007 6.02128 5.61249 6.04113C5.70318 6.26627 5.75242 6.2015 5.61046 6.22572C5.60356 6.43275 5.75054 6.34391 5.34786 6.34096C5.40149 6.53949 5.36148 6.47094 5.35771 6.52013C5.35741 6.52388 5.35655 6.53657 5.35604 6.53997L5.33254 6.60528C5.33039 6.6079 5.31943 6.61621 5.31695 6.61877C5.23606 6.70133 5.1916 6.57697 5.26078 6.7184C5.31647 6.83226 5.31005 6.79773 5.4665 6.84439C5.31531 6.90034 5.38889 6.8516 5.36404 6.94202C5.56041 6.9854 5.45452 6.94488 5.56889 6.94384C5.79249 6.94184 5.62981 6.89405 5.73382 6.96606C5.63276 7.09324 5.56402 7.00479 5.3985 7.14473L5.41627 7.29482C5.58454 7.39838 5.39668 7.28967 5.53022 7.32443C5.62688 7.34964 5.55904 7.30513 5.59559 7.35271C5.59729 7.35491 5.60198 7.36593 5.60341 7.36874C5.60514 7.3721 5.60885 7.38509 5.61049 7.38911C5.61243 7.39394 5.61616 7.40797 5.61813 7.41354C5.66376 7.54311 5.72181 7.53161 5.60822 7.65245C5.39722 7.87678 5.72462 7.55062 5.56199 7.7C5.55524 7.70622 5.54473 7.71585 5.5376 7.72177C5.53049 7.72764 5.51968 7.73658 5.51219 7.74203C5.39537 7.82715 5.44801 7.79173 5.27094 7.83957L5.27736 8.24404C5.31839 8.32442 5.22997 8.23024 5.33263 8.30726C5.34159 8.31399 5.404 8.3374 5.41785 8.34518C5.34329 8.3947 5.45348 8.32445 5.3309 8.37816C5.1434 8.46036 5.45652 8.31446 5.26914 8.40623C5.16359 8.45789 5.19661 8.49453 4.94082 8.51851C4.99161 8.6429 4.98923 8.68836 4.93377 8.75959C4.80424 8.92586 4.84631 8.74902 4.81899 9.1701C4.80737 9.34942 4.83577 9.17436 4.82995 9.29997C4.82027 9.50866 4.77808 9.39066 4.69482 9.58162C4.84873 9.68542 4.91239 9.63197 5.00159 9.81186C5.14367 10.0985 5.07881 10.0974 5.10909 10.1524C5.21295 10.0995 5.3802 9.95111 5.44586 10.0801C5.45145 10.0911 5.42042 10.3572 5.40695 10.4261C5.57289 10.3735 5.68365 10.2501 5.96022 10.1938C6.07746 10.1699 5.9478 10.1639 6.0848 10.1887L6.25173 10.2506C6.34896 10.2991 6.29297 10.2423 6.36819 10.3296C6.43994 10.4129 6.40951 10.3922 6.43537 10.4868C6.63798 10.4409 6.47154 10.5265 6.63028 10.3523C6.71867 10.4685 6.68236 10.4682 6.85501 10.5012C6.72861 10.5854 6.77487 10.5533 6.71909 10.6839C6.72792 10.6915 6.74032 10.6931 6.74387 10.7086L6.87711 10.8702C6.88341 10.8787 6.8915 10.8906 6.89772 10.8988L7.23067 11.1506C7.31031 11.1781 7.24375 11.179 7.3247 11.1552C7.40473 11.1318 7.27806 11.179 7.38816 11.1269L7.46248 11.0834C7.48968 11.3421 7.54502 11.3645 7.76856 11.2498L7.85766 11.1833C7.86098 11.1801 7.86946 11.1686 7.87233 11.1657C8.00264 11.031 7.794 11.1367 7.95561 11.134C8.21167 11.1298 7.74634 11.2044 8.01148 11.1236C8.07165 11.1052 7.96931 11.1131 8.08171 11.0948C8.18742 11.0775 8.16165 11.0529 8.24676 11.2352C8.26864 11.2821 8.30967 11.2192 8.29809 11.3414C8.31914 11.5075 8.34174 11.4415 8.54471 11.522C8.57263 11.4442 8.56427 11.409 8.64334 11.3572L9.1138 11.1025C9.11969 11.0956 9.13062 11.0803 9.13528 11.0746C9.14002 11.0688 9.14865 11.0548 9.15612 11.0455L9.2727 11.1867C9.36774 11.2644 9.4616 11.2783 9.57773 11.4034L9.86634 11.3105L9.87216 11.3158C10.2516 11.367 10.6501 11.7842 10.7978 12.1244C10.9836 12.5523 10.9067 13.1588 10.8531 13.6402C10.8009 14.1091 10.8932 14.7634 10.6897 15.1458C10.5848 15.3429 10.4629 15.4796 10.367 15.6795C10.1034 16.23 10.1667 16.3847 9.70786 16.6878C9.5083 16.8196 9.31235 16.8001 9.05059 16.8883C8.66657 17.0178 8.30818 17.5097 8.06819 17.565C7.79624 17.6277 7.55792 17.4664 7.29272 17.6565C7.12332 17.7779 7.11242 18.0143 6.88311 18.0566C6.59029 18.1106 5.97041 17.721 5.63309 18.3004C5.45611 18.3922 5.82982 18.1048 6.00185 18.0725C6.28392 18.0197 6.50877 18.1569 6.63846 18.2589C6.62789 18.3316 6.29768 19.0366 6.23351 19.2213C6.41456 18.9903 6.79466 18.5452 7.01964 18.3824C7.32022 18.1648 7.56646 17.6238 7.99264 18.0424C7.89598 18.5759 7.17793 18.3655 7.33918 19.0899C7.47096 19.6819 7.15028 19.8318 6.7614 20.0955C7.00868 19.9941 7.21502 19.8453 7.39699 19.6629C7.56729 19.4922 7.47012 19.6873 7.5406 19.4234C7.59844 19.2069 7.54218 18.9548 7.69232 18.8152C7.83718 18.6805 7.99422 18.698 8.16192 18.5225C8.41335 18.2593 8.44518 17.8904 8.71913 17.6037C8.92762 17.3856 9.41717 17.1386 9.83904 17.2155C9.80464 17.4261 9.72429 17.3925 9.60239 17.5341C9.46599 17.6926 9.54052 17.7419 9.44497 17.9472C9.28634 18.288 8.99612 18.1411 8.77061 18.4052C8.9524 18.3846 9.44634 18.2862 9.56611 18.1633C9.82546 17.8971 9.66215 17.7354 10.0564 17.5739L10.4702 17.57C10.3836 17.7571 10.2851 17.8825 10.2499 18.1553C10.1358 19.0398 9.49415 18.7954 8.92359 19.1388C8.58616 19.3419 8.63125 19.7623 8.26894 20.0072C7.89705 20.2586 7.69361 20.3624 7.66724 20.9582C7.80499 20.741 7.79009 20.5411 8.01733 20.3758C8.24461 20.2106 8.43401 20.2659 8.65917 20.0647C8.89131 19.8572 8.87166 19.606 9.01386 19.4661C9.15486 19.3275 9.59499 19.2596 9.80046 19.2937C10.0256 19.4657 10.2462 19.7805 10.1148 20.1861C9.87888 20.9141 10.1422 20.972 10.0971 21.2553C10.0808 20.8963 9.99011 20.7918 10.1777 20.4354C10.2966 20.2095 10.4614 20.0389 10.4078 19.6953C10.3127 19.0858 9.90534 19.4022 10.4693 18.7725C10.5903 18.6374 10.5665 18.577 10.7411 18.547C10.9168 19.1528 10.6941 19.3334 11.1535 19.852C11.4669 20.2057 11.7954 20.2744 11.8117 20.9588C12.1335 20.3382 11.5106 19.9058 11.3244 19.4904C11.2711 19.3715 10.8602 17.1317 11.412 17.6401C11.4923 17.7141 11.52 17.8013 11.4861 17.943C11.4307 18.174 11.2246 18.2713 11.3655 18.5911C11.4662 18.8196 11.875 18.9836 11.9614 19.2362C11.9937 19.3305 11.9767 19.315 11.9897 19.3959C11.992 19.4107 11.9922 19.4234 11.9947 19.4378L12.0327 19.5879C12.2016 18.9264 11.8661 18.8587 11.7339 18.5537C11.6218 18.295 11.7791 18.2093 11.8807 18.0405C12.0604 17.7417 11.861 17.7396 11.7978 17.5108L12.064 17.5248C12.2235 17.897 12.3749 17.6865 12.3938 18.5617C12.4039 19.028 12.6899 19.3552 12.5806 19.7292C12.4462 20.1894 12.2982 20.2669 12.5825 20.7614C12.793 21.1275 12.9818 21.238 12.9925 21.7861C13.4571 21.0429 12.5476 20.7651 12.8076 20.2439C12.8901 20.0786 12.954 19.8803 13.0363 19.7146C13.2929 19.7042 14.4993 20.1601 14.5765 21.2234C14.6339 20.8157 14.6259 20.7672 14.4495 20.429C13.7785 19.142 12.7814 19.8363 12.8844 18.2724C13.5833 18.3539 13.5928 18.5614 13.7161 18.871C13.9313 19.4112 14.3042 19.125 14.7944 19.1915C15.0172 19.4236 15.0953 19.6974 15.3915 19.824C15.0897 19.6083 15.085 19.2127 14.8898 19.0279C14.5799 18.8726 14.1985 19.0699 14.0412 18.8839C13.9608 18.7889 13.9675 18.2323 13.4332 18.0515C13.2197 17.9793 12.5933 17.7421 12.6484 17.4401C12.8415 17.5824 13.1359 17.5959 13.4673 17.5682Z" fill="#FAFAFA"/>
</svg>
