<svg width="24" height="24" viewBox="0 0 24 24" fill="none" xmlns="http://www.w3.org/2000/svg">
<mask id="mask0_1_4071" style="mask-type:luminance" maskUnits="userSpaceOnUse" x="0" y="0" width="24" height="24">
<path d="M0 0H24V24H0V0Z" fill="white"/>
</mask>
<g mask="url(#mask0_1_4071)">
<path d="M16.625 16.9184C16.9813 17.3621 16.5562 17.8621 16.35 18.0496C16.0875 18.2996 15.75 18.4996 15.3313 18.6559C15.1188 18.7371 14.95 18.7871 14.7937 18.8059L14.6938 18.8184C14.2875 18.8621 13.825 18.8184 13.2875 18.6996C12.2188 18.4746 11.225 17.8246 10.25 16.7309C10.1 16.5871 8.99375 15.4746 8.28125 13.9059C7.5625 12.3121 7.475 10.7559 7.46875 10.5871C7.29375 9.08711 7.46875 7.91836 8 6.97461C8.29375 6.45586 8.59375 6.05586 8.925 5.78086C9.0375 5.67461 9.19375 5.58086 9.39375 5.47461C9.775 5.28086 10.15 5.16211 10.4938 5.12461C10.7125 5.10586 11.4563 5.08711 11.55 5.66211L11.65 6.66211C11.6938 7.10586 11.7875 8.22461 11.7875 8.22461C11.8563 8.93711 11.775 9.31211 11.0813 9.40586C11.0312 9.41211 10.9812 9.40586 10.9125 9.40586C10.7562 9.38711 10.6188 9.38086 10.4938 9.38086H9.99375L10 9.88711C10.0125 10.4496 10.2125 11.8996 10.6438 12.8496C11.0375 13.7309 11.9563 14.8496 12.4375 15.2934L12.8125 15.6309L13.15 15.2559C13.225 15.1684 13.3063 15.0559 13.3562 14.9934C13.4375 14.8809 13.4812 14.8246 13.5125 14.7996C13.6937 14.6496 13.8562 14.5621 14.0188 14.5496C14.3375 14.5121 14.5813 14.7496 14.8562 15.0559L16.625 16.9184ZM24 11.9996C24 18.6246 18.6313 23.9934 12 23.9934C5.375 23.9934 0 18.6246 0 11.9996C0 5.38086 5.375 0.00585938 12 0.00585938C18.6313 0.00585938 24 5.38086 24 11.9996ZM22.1812 11.9996C22.1812 6.38711 17.625 1.83086 12 1.83086C6.38125 1.83086 1.825 6.38711 1.825 11.9996C1.825 17.6184 6.38125 22.1684 12 22.1684C17.625 22.1684 22.1812 17.6184 22.1812 11.9996Z" fill="#F4F4F4"/>
</g>
</svg>
