<svg width="24" height="24" viewBox="0 0 24 24" fill="none" xmlns="http://www.w3.org/2000/svg">
<rect x="2" width="2" height="3" rx="1" fill="#F4F4F4"/>
<rect x="11" width="2" height="3" rx="1" fill="#F4F4F4"/>
<rect x="20" width="2" height="3" rx="1" fill="#F4F4F4"/>
<path d="M1 4C1 3.44771 1.44772 3 2 3L22 3C22.5523 3 23 3.44771 23 4L1 4Z" stroke="#F4F4F4" stroke-width="1.5"/>
<path d="M23 6V22C23 22.5523 22.5523 23 22 23H2C1.44772 23 1 22.5523 1 22V6H23Z" stroke="#F4F4F4" stroke-width="2"/>
<path d="M11.3906 9.03418C10.7994 9.84685 10.4483 10.8459 10.4482 11.9287C10.4482 14.6509 12.6548 16.8583 15.377 16.8584C15.985 16.8584 16.5668 16.7463 17.1045 16.5449C16.2927 18.5694 14.3145 20 12 20C8.96243 20 6.5 17.5376 6.5 14.5C6.5 11.6684 8.63986 9.33742 11.3906 9.03418Z" fill="#FAFAFA" stroke="#FAFAFA" stroke-width="2" stroke-linejoin="round"/>
</svg>
